<?xml version="1.0" encoding="utf-8"?>
<!-- Generator: Adobe Illustrator 18.1.1, SVG Export Plug-In . SVG Version: 6.00 Build 0)  -->
<!DOCTYPE svg PUBLIC "-//W3C//DTD SVG 1.1//EN" "http://www.w3.org/Graphics/SVG/1.1/DTD/svg11.dtd">
<svg version="1.1" id="Layer_1" xmlns="http://www.w3.org/2000/svg" xmlns:xlink="http://www.w3.org/1999/xlink" x="0px" y="0px"
	 viewBox="90 0 612 612" enable-background="new 90 0 612 612" xml:space="preserve">
<path fill="#FD6900" d="M90,0h612v612H90V0z"/>
<path fill="#FFFFFF" d="M591.8,266.4l-52.5-0.2v-25.5c0-62.8-51-113.8-113.8-113.8h-81.8c-62.8,0-113.8,51-113.8,113.8v145.6
	c0,62.8,51,113.8,113.8,113.8h81.8c1.4,0,2.9,0,4.6-0.2v0.2h61.1c62.8,0,113.8-51,113.8-113.8V279.7
	C605.1,272.5,599.1,266.4,591.8,266.4z M329.3,246c0-15.7,12.7-28.4,28.4-28.4h68.4c7.8,0,15,3.2,20.1,8.3
	c5.1,5.1,8.3,12.3,8.3,20.1c0,15.7-12.7,28.4-28.4,28.4h-1.1c-1.3,0.3-2.7,0.4-4.1,0.4h-69.8c-6,0-11.5-2.4-15.4-6.5
	c-3.8-3.8-6.5-9.4-6.5-15.4c0-1.2,0.1-2.3,0.3-3.4C329.4,248.4,329.3,247.2,329.3,246z M484.4,413.7H357.7c-7.8,0-15-3.2-20.1-8.3
	c-1.9-1.9-3.5-4-4.8-6.4l-0.1-0.1c-2.1-3.3-3.5-7.4-3.5-11.6c0-0.5,0-1,0-1.4c0,0,0,0,0,0c0-0.2,0-0.3,0-0.5
	c0-15.7,12.7-28.4,28.4-28.4h126.7c7.8,0,15,3.2,20.1,8.3c5.1,5.1,8.3,12.3,8.3,20.1C512.8,401,500.1,413.7,484.4,413.7z"/>
</svg>
