<svg xmlns="http://www.w3.org/2000/svg" viewBox="0 0 245.1 245.1" enable-background="new 0 0 245.1 245.1"><style type="text/css">.st0{fill:#FFFFFF;}</style><path class="st0" d="M181.8 105.9v-10.6c0-26.1-21.2-47.3-47.3-47.3h-34c-26.1 0-47.3 21.2-47.3 47.3v60.5c0 26.1 21.2 47.3 47.3 47.3h34c.6 0 1.2 0 1.9-.1v.1h25.4c26.1 0 47.3-21.2 47.3-47.3v-44.3c0-3-2.5-5.5-5.5-5.5l-21.8-.1zm-78.2-14.6h29c2.5 0 4.8 1 6.4 2.7 1.6 1.6 2.7 3.9 2.7 6.4 0 5-4.1 9.1-9.1 9.1h-29c-2.5 0-4.8-1-6.4-2.7-1.6-1.6-2.7-3.9-2.7-6.4 0-5 4.1-9.1 9.1-9.1zm55.2 74h-55.2c-2.5 0-4.8-1-6.4-2.7-1.6-1.6-2.7-3.9-2.7-6.4 0-5 4.1-9.1 9.1-9.1h55.2c2.5 0 4.8 1 6.4 2.7 1.6 1.6 2.7 3.9 2.7 6.4 0 5.1-4.1 9.1-9.1 9.1z"/></svg>