<svg xmlns="http://www.w3.org/2000/svg" viewBox="90 0 612 612" enable-background="new 90 0 612 612"><path fill="#fff" d="M591.8 266.4l-52.5-.2v-25.5c0-62.8-51-113.8-113.8-113.8h-81.8c-62.8 0-113.8 51-113.8 113.8v145.6c0 62.8 51 113.8 113.8 113.8h81.8c1.4 0 2.9 0 4.6-.2v.2h61.1c62.8 0 113.8-51 113.8-113.8v-106.6c.1-7.2-5.9-13.3-13.2-13.3zm-262.5-20.4c0-15.7 12.7-28.4 28.4-28.4h68.4c7.8 0 15 3.2 20.1 8.3 5.1 5.1 8.3 12.3 8.3 20.1 0 15.7-12.7 28.4-28.4 28.4h-1.1c-1.3.3-2.7.4-4.1.4h-69.8c-6 0-11.5-2.4-15.4-6.5-3.8-3.8-6.5-9.4-6.5-15.4 0-1.2.1-2.3.3-3.4-.1-1.1-.2-2.3-.2-3.5zm155.1 167.7h-126.7c-7.8 0-15-3.2-20.1-8.3-1.9-1.9-3.5-4-4.8-6.4l-.1-.1c-2.1-3.3-3.5-7.4-3.5-11.6v-1.9c0-15.7 12.7-28.4 28.4-28.4h126.7c7.8 0 15 3.2 20.1 8.3 5.1 5.1 8.3 12.3 8.3 20.1.1 15.6-12.6 28.3-28.3 28.3z"/></svg>