<svg xmlns="http://www.w3.org/2000/svg" viewBox="0 0 245.1 245.1" enable-background="new 0 0 245.1 245.1"><style type="text/css">.st0{fill:#005CFF;} .st1{fill:#FFFFFF;}</style><path class="st0" d="M0 0h245.1v245.1h-245.1z"/><path class="st1" d="M107.5 118.5c.6.3 1 .5 1.4.6 8.9 3.8 13.8 10.8 15.1 20.3.9 6.2.3 12.4-2.2 18.2-4.6 10.3-12.4 16.8-23.6 18.8-4.9.9-9.8 1.3-14.7 1.3h-49.2c-.3-1.1-.4-107.6-.1-110.2l1.2-.1h51.7c5.8 0 11.5.7 16.9 2.9 10.4 4.2 15.8 11.9 16.7 23 .3 3.2.1 6.4-.6 9.5-1.2 5.9-4.3 10.5-9.4 13.7l-1.5.9c-.5.4-1 .7-1.7 1.1zm-48 40c.5 0 .8.1 1.1.1h22.3c2.5 0 5-.2 7.4-.7 5.5-1.3 9-4.5 10.3-10.1l.3-1.5c.3-3 .4-6-.7-8.9-1.5-3.9-4.5-6-8.4-7.1-2.8-.8-5.6-1-8.5-1h-22.7l-1.1.1v29.1zm0-47.6h18.8c2.4 0 4.8 0 7.2-.1 2.9-.1 5.6-.8 8.2-2.2 2.4-1.2 3.9-3.2 4.6-5.7.7-2.4.7-4.7.3-7.1-.7-4.3-3.2-6.9-7.4-7.9-3.4-.8-6.9-1.2-10.4-1.2h-20l-1.2.1c-.1 8-.1 15.9-.1 24.1zM211 140.6h-57.3c-.3 1.2 0 2.2.2 3.2.2 1.4.5 2.8.9 4.2 2.1 6.6 6.8 10.4 13.4 11.8 3 .6 6.1.6 9.2.1 4.7-.8 8.3-3.3 10.7-7.4.6-1 1.2-1.3 2.4-1.3 5.9.1 11.9 0 17.8 0h1.6c-.3 2.9-1.3 5.4-2.7 7.8-3.9 6.3-9 11.3-15.8 14.4-4.4 2-9.1 3-13.9 3.4-5.9.5-11.7.1-17.4-1.5-6.1-1.7-11.5-4.7-16.3-8.8-4.7-4.1-7.5-9.3-9.1-15.2-1.8-6.6-2.2-13.3-1.8-20 .3-4.9 1.1-9.7 2.8-14.3 4.6-12.3 13.5-19.8 26.2-22.6 7.4-1.7 14.8-1.4 22.2.4 10.9 2.7 18.4 9.4 23.1 19.4 2.1 4.6 3.3 9.4 3.6 14.4.2 3.7.2 7.5.3 11.2 0 .1 0 .3-.1.8zm-21.3-13.8c-.1-1.1-.2-2.1-.4-3.1-1.3-6.7-5.3-11-11.8-12.9-2.4-.7-4.9-.8-7.4-.6-6.3.4-10.9 3.4-13.7 9.1-1 2-1.6 4-2 6.2-.1.4-.1.9-.2 1.4 11.9-.1 23.6-.1 35.5-.1zM193.9 83h-44.1c-.3-1-.4-9.3-.1-10.9h44.1c.1 3.6.1 7.2.1 10.9z"/></svg>