<?xml version="1.0" encoding="utf-8"?>
<!-- Generator: Adobe Illustrator 18.1.1, SVG Export Plug-In . SVG Version: 6.00 Build 0)  -->
<!DOCTYPE svg PUBLIC "-//W3C//DTD SVG 1.1//EN" "http://www.w3.org/Graphics/SVG/1.1/DTD/svg11.dtd">
<svg version="1.1" id="Layer_1" xmlns="http://www.w3.org/2000/svg" xmlns:xlink="http://www.w3.org/1999/xlink" x="0px" y="0px"
	 viewBox="90 0 612 612" style="enable-background:new 90 0 612 612;" xml:space="preserve">
<style type="text/css">
	.st0{fill:#C82227;}
	.st1{fill:#FFFFFF;stroke:#FFFFFF;stroke-width:4;stroke-miterlimit:10;}
</style>
<path class="st0" d="M90,0h612v612H90V0z"/>
<path class="st1" d="M281.3,239.5c-1.5,14.5-1,28.7,4.5,42.7c2.7,6.7,6.5,12.7,11,18.2l2.2,2.7c2.2,3,2,6.2,1.2,9.7
	c-1.7,6.2-3.2,12.5-4.7,18.7c-0.2,1.5-0.7,2.7-1.5,4c-2,3.5-5.7,5-9.5,3.7c-6.2-2-12-5.5-17.2-9.5c-14-10.7-22.5-25.2-27.7-41.7
	c-5.2-17-7-34.2-5.5-51.9v-2.5c0.7-4.7,1.2-9.2,2.2-14c2.2-10,5.2-19.7,9.5-29l3-6.7c2.7-5,5.5-10,8.7-14.7l6.2-9l1.7-2.7
	c1.2-0.5,1.7-1.7,2.5-2.7c1.2-1.2,2.7-2.5,3.5-4c0.5-0.5,1.2-1,1.2-1.7c1.2-0.5,2-1.7,2.7-2.5c8.5-8.7,17.7-16.5,28-23
	c2-1.2,3.7-2.5,5.5-3.7c1.5-0.5,2.7-1,4-2.2c0.2,0,0.5,0,0.5-0.2c1.5-0.5,2.7-1.2,4-2.2l4.2-2.2c2-0.2,3.5-1.2,5.2-2l3.5-1.5
	l0.2-0.2c1.2-0.2,2.5-0.5,3.5-1.5c1.7-0.2,3-1,4.7-1.5l5-1.7c0.7,0,1.7-0.2,2.5-0.7l0.2-0.2h1l5.5-1.5c1.5-0.2,3-0.5,4.5-1.2
	c1.7,0,3.5-1,5.2-1.2c3.2-0.2,6.2-1,9.5-1.5l11.2-1.5c1,0,2,0,3-0.2c4.2-0.5,8.2-0.5,12.5-0.7c7-0.2,14.2,0,21.2,0.2h0.2
	c3,0.5,5.7,0.7,8.7,1l8,1.2l1.7,0.2c3,0.7,6,1.5,9,2c2,0,3.7,1,5.5,1.5c5.7,1.5,11.5,3.5,17,5.7c4.5,1.7,8.7,3.7,13,6
	c0.5,0.2,0.7,0.5,1.2,0.5h0.5c0,0.2,0.2,0.5,0.5,0.5c4.7,2.7,9.5,5.5,14,8.7c4,2.7,7.7,5.7,11.5,8.7c1,0.7,1.5,2,3,2.2
	c0.2,0,1,1,1.2,1.7l3.2,3l7,7.5c2.5,2.7,4.7,5.7,7,8.5c0.5,0.7,1,1.7,1.7,2.2v0.2c0,0,0,0.2,0.2,0.2l0.2,0.2c0.7,1.2,1.2,3,2.7,3.7
	l4.2,7.2c1.7,3,3.2,6.2,5,9.5l0.5,0.7c4.2,9.7,7.7,19.7,9.5,30.5c1.2,7.2,2,14.5,2.2,22v1.5c0,7-0.2,13.7-0.7,20.5
	c-0.7,10-2.2,20.2-4.5,30c-2.2,10.7-5.5,21-9.7,31.2c-5.2,12.7-11.7,24.7-20.2,35.7c-8.2,10.7-17.7,20.2-29,28
	c-14.5,10-30.5,16.2-47.7,19c-8.7,1.2-17.7,2-26.5,0.7c-11.5-1.2-22.2-5-32.2-11c-7.2-4.5-13.7-10.2-18-17.7l-0.5-0.5l-2.5,9.7
	l-10,39.2c-2.2,8.7-4.2,17.5-7.2,26c-3.2,8.7-7,17.2-11.2,25.2c-8.2,15.2-17.7,29.5-28.2,43.2c-1.2,1.5-2.2,3-4.5,2.5
	s-2.2-2.5-2.5-4.2c-2.7-18.7-4-37.5-3.2-56.4c0.5-13.2,2.2-26.2,5.5-39c2.5-10.2,5-20.7,7.2-31l4.7-20.5c0.7-3.5,1.5-7.2,2.5-10.7
	c1.2-3.7,2-7.5,2.7-11.2c1.2-5,2.2-10,3.5-14.7c2.7-12.2,5.7-24.5,8.7-36.7c0.2-0.7,0.2-1.5-0.2-2.2c-4-9.5-6.2-19.7-7-30
	c-0.5-5-0.2-10.2,0-15.2l1.5-10l2.5-9c0.7-2,1.5-4,2.5-6c3.7-8,8.5-15,15.2-20.5c3-2.5,6.2-4.5,9.7-6c0.7-0.5,2-0.2,2.5-1.5
	c0.5,0,1.2,0.2,1.7-0.2c2.2-0.5,4.5-0.7,6.5-1.2h6.5l3,0.2c5.5,0.5,10.5,2.5,14.7,6c6.5,5.2,10,12.5,11.5,20.7
	c1.2,6.2,1,12.5,0,18.7c-0.5,3.2-1,6.5-1.7,9.7l-0.2,0.5c-2,9.2-4.7,18.2-7.5,27c-4,13.2-8.5,26.5-11.5,40c-2,9.2-1,18.2,3.7,26.5
	c7.5,12.5,19,18.2,33,19c15,0.5,27.7-5.2,38.7-15c8-7,14-15.5,19.2-25c7-12.7,11.5-26,14.7-40c2.7-11.5,4.2-23.5,5-35.2
	c0.5-2.2,0.2-4.7,0.2-7c0.5-13.7-0.7-27.2-5.5-40.5c-2.2-6.5-5.2-12.7-9.2-18.2l-0.7-1.2c-3-4.2-6.2-8.2-9.7-11.7
	c-12.7-12.5-28-20-45.2-23.7c-13.2-3-26.7-3.7-40.2-2.7c-13.5,1-26.5,4-39,9c-15.2,6.2-28.5,15.5-39.7,27.7c-2.2,2.5-4.7,5-6.5,8
	c-0.7,0.7-1.5,1.2-1.5,2.5c-0.5,0-0.7,0.5-1,0.7c-2.5,3.7-4.7,7.2-7,11.2c-4.5,8.5-8,17.5-10.2,26.7
	C282.8,228.7,281.5,234,281.3,239.5L281.3,239.5z"/>
</svg>
